<svg version="1" xmlns="http://www.w3.org/2000/svg" width="21.333" height="21.333" viewBox="0 0 16.000000 16.000000"><path d="M7.881.6c-.218.094-.256.269-.087.406.15.131 2.025.144 2.2.013.156-.107.169-.288.031-.4C9.881.5 8.162.48 7.881.6zM6.281 2.237a71.9 71.9 0 0 1-.631 1.45c-.144.325-1.281 3.025-2.531 6-1.244 2.976-2.3 5.5-2.35 5.613l-.081.2H12.625l-.069-.163c-.031-.093-.043-.18-.031-.193.019-.019.194-.038.394-.05.481-.025 2.319-.106 2.537-.113.094 0 .169-.025.169-.05 0-.044-.275-.637-.875-1.9-.181-.381-.431-.912-.563-1.187-.13-.275-.387-.825-.574-1.219-.444-.919-.738-1.55-.975-2.063-.525-1.143-.657-1.393-.7-1.306-.025.05-.25.65-.494 1.338-.25.687-.506 1.387-.569 1.556a1.912 1.912 0 0 0-.125.387c0 .05-.037.088-.081.088-.081 0-2.938-6.688-2.881-6.744.012-.012.637-.025 1.387-.025 1.419.006 1.638.038 1.638.263 0 .206-.176.275-.7.293-.52.025-.675.088-.675.275 0 .275.037.282 3.287.282 2.775 0 3.094-.013 3.188-.1.13-.132.068-.35-.12-.407-.074-.025-.7-.05-1.393-.05-1.275-.006-1.463-.037-1.463-.256 0-.112.225-.294.388-.312.081-.007.175-.019.219-.025.043 0 .106-.069.15-.138.056-.112.043-.156-.057-.256-.118-.119-.225-.125-3.137-.131L7.481 3.28l-.362-.844c-.2-.462-.363-.875-.369-.918-.006-.263-.156-.032-.469.718zM.025 3.087a.456.456 0 0 0 .031.275c.057.107.138.12.732.12.718.005.806.043.737.33-.044.194-.05.2-.237.22-.225.024-.288.08-.288.25 0 .305.088.324 1.363.318.656-.006 1.206-.025 1.23-.044a.574.574 0 0 0 .063-.2c.05-.262-.087-.331-.6-.312-.262.006-.487-.013-.537-.057-.125-.1-.1-.412.037-.487.15-.075.219-.269.163-.438-.038-.118-.094-.125-1.344-.125H.062l-.037.15z"/></svg>