<?xml version="1.0" standalone="no"?>
<!DOCTYPE svg PUBLIC "-//W3C//DTD SVG 20010904//EN"
 "http://www.w3.org/TR/2001/REC-SVG-20010904/DTD/svg10.dtd">
<svg version="1.0" xmlns="http://www.w3.org/2000/svg"
 width="16.000000pt" height="16.000000pt" viewBox="0 0 16.000000 16.000000"
 preserveAspectRatio="xMidYMid meet">
<metadata>
Created by potrace 1.11, written by Peter Selinger 2001-2013
</metadata>
<g transform="translate(0.000000,16.000000) scale(0.006250,-0.006250)"
fill="#000000" stroke="none">
<path d="M1261 2464 c-35 -15 -41 -43 -14 -65 24 -21 324 -23 352 -2 25 17 27
46 5 64 -23 19 -298 22 -343 3z"/>
<path d="M1005 2202 c-32 -75 -77 -180 -101 -232 -23 -52 -205 -484 -405 -960
-199 -476 -368 -880 -376 -898 l-13 -32 955 0 955 0 -11 26 c-5 15 -7 29 -5
31 3 3 31 6 63 8 77 4 371 17 406 18 15 0 27 4 27 8 0 7 -44 102 -140 304 -29
61 -69 146 -90 190 -21 44 -62 132 -92 195 -71 147 -118 248 -156 330 -84 183
-105 223 -112 209 -4 -8 -40 -104 -79 -214 -40 -110 -81 -222 -91 -249 -11
-27 -20 -55 -20 -62 0 -8 -6 -14 -13 -14 -13 0 -470 1070 -461 1079 2 2 102 4
222 4 227 -1 262 -6 262 -42 0 -33 -28 -44 -112 -47 -83 -4 -108 -14 -108 -44
0 -44 6 -45 526 -45 444 0 495 2 510 16 21 21 11 56 -19 65 -12 4 -112 8 -223
8 -204 1 -234 6 -234 41 0 18 36 47 62 50 13 1 28 3 35 4 7 0 17 11 24 22 9
18 7 25 -9 41 -19 19 -36 20 -502 21 l-483 2 -58 135 c-32 74 -58 140 -59 147
-1 42 -25 5 -75 -115z"/>
<path d="M4 2066 c-3 -13 -1 -33 5 -44 9 -17 22 -19 117 -19 115 -1 129 -7
118 -53 -7 -31 -8 -32 -38 -35 -36 -4 -46 -13 -46 -40 0 -49 14 -52 218 -51
105 1 193 4 197 7 3 4 8 18 10 32 8 42 -14 53 -96 50 -42 -1 -78 2 -86 9 -20
16 -16 66 6 78 24 12 35 43 26 70 -6 19 -15 20 -215 20 l-210 0 -6 -24z"/>
</g>
</svg>
